<svg xmlns="http://www.w3.org/2000/svg" version="1.1" xmlns:xlink="http://www.w3.org/1999/xlink" xmlns:svgjs="http://svgjs.com/svgjs" width="512" height="512" x="0" y="0" viewBox="0 0 512 512" style="enable-background:new 0 0 512 512" xml:space="preserve" class=""><g><path d="m472.971 159.029-8.971-8.97V104a8 8 0 0 0-8-8h-46.059L392.97 79.029A23.842 23.842 0 0 0 376 72h-48v-8a48.055 48.055 0 0 0-48-48H104a48.055 48.055 0 0 0-48 48v352H40a8 8 0 0 0-8 8v64a8 8 0 0 0 8 8h312v-16H48v-48h272a8 8 0 0 0 8-8V296h8a8.009 8.009 0 0 1 8 8v124a68 68 0 0 0 136 0V176a23.846 23.846 0 0 0-7.029-16.971zm-91.314-68.686 19.314 19.314a8 8 0 0 0 5.657 2.343H448v41.372a8 8 0 0 0 2.343 5.657l11.314 11.313A7.952 7.952 0 0 1 464 176v96h-16v-89.373a8 8 0 0 0-2.343-5.656l-22.628-22.628a8 8 0 0 0-5.656-2.343h-41.314c-.018-21.768-.059-40.018-.059-40.018a8 8 0 0 0-8-7.982h-8V88h16a7.948 7.948 0 0 1 5.657 2.343zM336 248h-8V120h32.016c.016 8.841.052 84.113.021 95.923a31.993 31.993 0 0 0 32 32.077H432v180a20 20 0 0 1-40 0V304a56.064 56.064 0 0 0-56-56zm78.059-80L432 185.941V200h-24v-32zM400 216h32v16h-39.963a15.994 15.994 0 0 1-16-16.035c.025-9.873.032-32.712.03-47.965H392v40a8 8 0 0 0 8 8zM344 88v16h-16V88zM72 416V64a32.036 32.036 0 0 1 32-32h176a32.036 32.036 0 0 1 32 32v352zm392 12a52 52 0 0 1-104 0V304a24.027 24.027 0 0 0-24-24h-8v-16h8a40.045 40.045 0 0 1 40 40v124a36 36 0 0 0 72 0V288h16z" fill="#7ab629" data-original="#000000" class=""></path><path d="M280 64H104a8 8 0 0 0-8 8v128a8 8 0 0 0 8 8h176a8 8 0 0 0 8-8V72a8 8 0 0 0-8-8zm-8 128H112V80h160z" fill="#7ab629" data-original="#000000" class=""></path><path d="M136 128h16v16h-16zM167.998 128h16v16h-16zM200 128h16v16h-16zM231.998 128h16v16h-16zM155.17 363.791a43.664 43.664 0 0 0 76.4-41.92l-32.32-69.254a8 8 0 0 0-14.5 0l-32.318 69.254a43.462 43.462 0 0 0 2.738 41.92zm11.761-35.154L192 274.917l25.069 53.72a27.664 27.664 0 1 1-50.138 0z" fill="#7ab629" data-original="#000000" class=""></path></g></svg>